<?xml version="1.0" encoding="UTF-8" standalone="no" ?>
<!DOCTYPE svg PUBLIC "-//W3C//DTD SVG 1.1//EN" "http://www.w3.org/Graphics/SVG/1.1/DTD/svg11.dtd">
<svg xmlns="http://www.w3.org/2000/svg" xmlns:xlink="http://www.w3.org/1999/xlink" version="1.1" width="1280" height="1024" viewBox="0 0 1280 1024" xml:space="preserve">
<desc>Created with Fabric.js 5.3.0</desc>
<defs>
</defs>
<g transform="matrix(1 0 0 1 640 512)" id="background-logo"  >
<rect style="stroke: none; stroke-width: 0; stroke-dasharray: none; stroke-linecap: butt; stroke-dashoffset: 0; stroke-linejoin: miter; stroke-miterlimit: 4; fill: rgb(255,255,255); fill-opacity: 0; fill-rule: nonzero; opacity: 1;"  paint-order="stroke"  x="-640" y="-512" rx="0" ry="0" width="1280" height="1024" />
</g>
<g transform="matrix(1.6324757792091182 0 0 1.632475779209118 261.004375 512)" id="logo-logo"  >
<g style=""  paint-order="stroke"   >
		<g transform="matrix(0.917930923744532 0 0 0.9179309237445321 0 0)"  >
<g style=""  paint-order="stroke"   >
		<g transform="matrix(1 0 0 1 0 0)"  >
<linearGradient id="SVGID_1339_47857" gradientUnits="userSpaceOnUse" gradientTransform="matrix(1 0 0 1 -100 -100)"  x1="0" y1="0" x2="0" y2="200">
<stop offset="0%" style="stop-color:rgb(169,169,169);stop-opacity: 1"/>
<stop offset="100%" style="stop-color:rgb(125,125,125);stop-opacity: 1"/>
</linearGradient>
<polygon style="stroke: none; stroke-width: 1; stroke-dasharray: none; stroke-linecap: butt; stroke-dashoffset: 0; stroke-linejoin: miter; stroke-miterlimit: 4; fill: url(#SVGID_1339_47857); fill-rule: nonzero; opacity: 1;"  paint-order="stroke"  points="100,100 0,100 0,95.12 95.12,95.12 95.12,-95.12 -95.12,-95.12 -95.12,0 -100,0 -100,-100 100,-100 100,100 " />
</g>
</g>
</g>
</g>
</g>
<g transform="matrix(1.9211538461538462 0 0 1.9211538461538462 796.0975923076925 492.7425565914982)" id="text-logo"  >
<g style=""  paint-order="stroke"   >
		<g transform="matrix(1 0 0 1 0 0)" id="text-logo-path-0"  >
<path style="stroke: rgb(255,255,255); stroke-width: 0; stroke-dasharray: none; stroke-linecap: butt; stroke-dashoffset: 0; stroke-linejoin: miter; stroke-miterlimit: 4; fill: rgb(153,153,153); fill-rule: nonzero; opacity: 1;"  paint-order="stroke"  transform=" translate(-170.41000000000003, 15.399999999999999)" d="M 11 -30.8 L 4.4 -30.8 L 4.4 0 L 11 0 C 15.18 0 18.48 -1.23 18.48 -7.04 L 18.48 -23.76 C 18.48 -29.66 15.18 -30.8 11 -30.8 Z M 7.48 -28.16 L 11 -28.16 C 13.68 -28.16 15.4 -27.32 15.4 -23.32 L 15.4 -7.48 C 15.4 -3.48 13.68 -2.64 11 -2.64 L 7.48 -2.64 Z M 47.65 -30.8 L 40.61 -30.8 L 40.61 -28.16 L 42.59 -28.16 L 42.59 -2.64 L 40.61 -2.64 L 40.61 0 L 47.65 0 L 47.65 -2.64 L 45.67 -2.64 L 45.67 -28.16 L 47.65 -28.16 Z M 77.04 -30.8 L 70.44 -30.8 L 70.44 0 L 77.04 0 C 81.22 0 84.52 -1.23 84.52 -7.04 L 84.52 -23.76 C 84.52 -29.66 81.22 -30.8 77.04 -30.8 Z M 73.52 -28.16 L 77.04 -28.16 C 79.73 -28.16 81.44 -27.32 81.44 -23.32 L 81.44 -7.48 C 81.44 -3.48 79.73 -2.64 77.04 -2.64 L 73.52 -2.64 Z M 107.98 0 L 111.06 0 L 111.06 -11.44 L 114.14 -11.44 L 119.64 0 L 122.94 0 L 117.3 -11.79 C 119.9 -12.45 121.62 -14.26 121.62 -18.48 L 121.62 -23.76 C 121.62 -29.66 118.32 -30.8 114.14 -30.8 L 107.98 -30.8 Z M 111.06 -14.08 L 111.06 -28.16 L 114.14 -28.16 C 116.82 -28.16 118.54 -27.32 118.54 -23.32 L 118.54 -18.92 C 118.54 -14.92 116.82 -14.08 114.14 -14.08 Z M 150.13 -30.8 L 143.09 -30.8 L 143.09 -28.16 L 145.07 -28.16 L 145.07 -2.64 L 143.09 -2.64 L 143.09 0 L 150.13 0 L 150.13 -2.64 L 148.15 -2.64 L 148.15 -28.16 L 150.13 -28.16 Z M 172.96 -30.8 L 172.96 0 L 176.04 0 L 176.04 -13.02 L 176.97 -14.48 L 184.4 0 L 187.7 0 L 178.77 -17.38 L 187.09 -30.8 L 183.79 -30.8 L 176.04 -18.35 L 176.04 -30.8 Z M 214.9 0.44 C 219.03 0.44 222.38 -0.7 222.38 -6.6 L 222.38 -7.48 C 222.38 -14.56 210.5 -19.1 210.5 -23.32 C 210.5 -27.32 212.21 -28.16 214.9 -28.16 C 217.58 -28.16 219.3 -27.32 219.3 -23.32 L 219.3 -21.56 L 222.38 -21.56 L 222.38 -24.2 C 222.38 -30.1 219.08 -31.24 214.9 -31.24 C 210.76 -31.24 207.42 -30.1 207.42 -24.2 L 207.42 -23.32 C 207.42 -16.98 219.3 -12.45 219.3 -7.48 C 219.3 -3.48 217.58 -2.64 214.9 -2.64 C 212.21 -2.64 210.5 -3.48 210.5 -7.48 L 210.5 -9.77 L 207.42 -9.77 L 207.42 -6.6 C 207.42 -0.79 210.72 0.44 214.9 0.44 Z M 252.21 0.44 C 256.34 0.44 259.69 -0.7 259.69 -6.6 L 259.69 -7.48 C 259.69 -14.56 247.81 -19.1 247.81 -23.32 C 247.81 -27.32 249.52 -28.16 252.21 -28.16 C 254.89 -28.16 256.61 -27.32 256.61 -23.32 L 256.61 -21.56 L 259.69 -21.56 L 259.69 -24.2 C 259.69 -30.1 256.39 -31.24 252.21 -31.24 C 248.07 -31.24 244.73 -30.1 244.73 -24.2 L 244.73 -23.32 C 244.73 -16.98 256.61 -12.45 256.61 -7.48 C 256.61 -3.48 254.89 -2.64 252.21 -2.64 C 249.52 -2.64 247.81 -3.48 247.81 -7.48 L 247.81 -9.77 L 244.73 -9.77 L 244.73 -6.6 C 244.73 -0.79 248.03 0.44 252.21 0.44 Z M 282.26 -24.2 L 282.26 -6.6 C 282.26 -0.7 285.6 0.44 289.74 0.44 C 293.92 0.44 297.22 -0.79 297.22 -6.6 L 297.22 -24.2 C 297.22 -30.1 293.92 -31.24 289.74 -31.24 C 285.6 -31.24 282.26 -30.1 282.26 -24.2 Z M 285.34 -7.48 L 285.34 -23.32 C 285.34 -27.32 287.06 -28.16 289.74 -28.16 C 292.42 -28.16 294.14 -27.32 294.14 -23.32 L 294.14 -7.48 C 294.14 -3.48 292.42 -2.64 289.74 -2.64 C 287.06 -2.64 285.34 -3.48 285.34 -7.48 Z M 320.67 -30.8 L 320.67 0 L 323.75 0 L 323.75 -23.32 L 333.34 0 L 336.42 0 L 336.42 -30.8 L 333.34 -30.8 L 333.34 -7.48 L 323.75 -30.8 Z" stroke-linecap="round" />
</g>
</g>
</g>
<g transform="matrix(1.9211538461538462 0 0 1.9211538461538462 261.73721020302304 515.0376402650766)" id="tagline-3a78d944-c0db-44d4-8ad5-60158c925687-logo"  >
<g style=""  paint-order="stroke"   >
		<g transform="matrix(1 0 0 1 0 0)" id="tagline-3a78d944-c0db-44d4-8ad5-60158c925687-logo-path-0"  >
<linearGradient id="SVGID_47858" gradientUnits="userSpaceOnUse" gradientTransform="matrix(1 0 0 1 6.499999999999998 -45.5)"  x1="-6.5" y1="-11.644100000000009" x2="-6.5" y2="61.35589999999999">
<stop offset="0%" style="stop-color:rgb(169,169,169);stop-opacity: 1"/>
<stop offset="100%" style="stop-color:rgb(125,125,125);stop-opacity: 1"/>
</linearGradient>
<path style="stroke: rgb(255,255,255); stroke-width: 0; stroke-dasharray: none; stroke-linecap: butt; stroke-dashoffset: 0; stroke-linejoin: miter; stroke-miterlimit: 4; fill: url(#SVGID_47858); fill-rule: nonzero; opacity: 1;"  paint-order="stroke"  transform=" translate(-16.9, 22.75)" d="M 16.25 -45.5 L 6.5 -45.5 L 6.5 0 L 16.25 0 C 22.43 0 27.3 -1.82 27.3 -10.4 L 27.3 -35.1 C 27.3 -43.81 22.43 -45.5 16.25 -45.5 Z M 11.05 -41.6 L 16.25 -41.6 C 20.21 -41.6 22.75 -40.37 22.75 -34.45 L 22.75 -11.05 C 22.75 -5.13 20.21 -3.9 16.25 -3.9 L 11.05 -3.9 Z" stroke-linecap="round" />
</g>
</g>
</g>
<g transform="matrix(1.9211538461538462 0 0 1.9211538461538462 580.5069140942928 554.9800952616821)" id="tagline-ee21041c-fd7a-4646-a088-df0a2334375e-logo"  >
<g style=""  paint-order="stroke"   >
		<g transform="matrix(1 0 0 1 0 0)" id="tagline-ee21041c-fd7a-4646-a088-df0a2334375e-logo-path-0"  >
<path style="stroke: none; stroke-width: 0; stroke-dasharray: none; stroke-linecap: butt; stroke-dashoffset: 0; stroke-linejoin: miter; stroke-miterlimit: 4; fill: rgb(145,145,145); fill-rule: nonzero; opacity: 1;"  paint-order="stroke"  transform=" translate(-57.745, 6.3)" d="M 4.5 -12.6 L 1.8 -12.6 L 1.8 0 L 4.5 0 C 6.21 0 7.56 -0.5 7.56 -2.88 L 7.56 -9.72 C 7.56 -12.13 6.21 -12.6 4.5 -12.6 Z M 3.06 -11.52 L 4.5 -11.52 C 5.6 -11.52 6.3 -11.18 6.3 -9.54 L 6.3 -3.06 C 6.3 -1.42 5.6 -1.08 4.5 -1.08 L 3.06 -1.08 Z M 23.8 -12.6 L 20.92 -12.6 L 20.92 -11.52 L 21.73 -11.52 L 21.73 -1.08 L 20.92 -1.08 L 20.92 0 L 23.8 0 L 23.8 -1.08 L 22.99 -1.08 L 22.99 -11.52 L 23.8 -11.52 Z M 43.27 -6.3 L 40.03 -6.3 L 40.03 -5.22 L 42.01 -5.22 L 42.01 -3.06 C 42.01 -1.42 41.31 -1.08 40.21 -1.08 C 39.11 -1.08 38.41 -1.42 38.41 -3.06 L 38.41 -9.54 C 38.41 -11.18 39.11 -11.52 40.21 -11.52 C 41.31 -11.52 42.01 -11.18 42.01 -9.54 L 42.01 -7.74 L 43.27 -7.74 L 43.27 -9.9 C 43.27 -12.31 41.92 -12.78 40.21 -12.78 C 38.52 -12.78 37.15 -12.31 37.15 -9.9 L 37.15 -2.7 C 37.15 -0.29 38.52 0.18 40.21 0.18 C 40.77 0.18 41.65 -0.05 42.14 -1.04 L 42.55 0 L 43.27 0 Z M 59.51 -12.6 L 56.63 -12.6 L 56.63 -11.52 L 57.44 -11.52 L 57.44 -1.08 L 56.63 -1.08 L 56.63 0 L 59.51 0 L 59.51 -1.08 L 58.7 -1.08 L 58.7 -11.52 L 59.51 -11.52 Z M 77.81 -12.6 L 71.87 -12.6 L 71.87 -11.52 L 74.21 -11.52 L 74.21 0 L 75.47 0 L 75.47 -11.52 L 77.81 -11.52 Z M 88.92 0 L 90.18 0 L 90.9 -3.42 L 94.12 -3.42 L 94.84 0 L 96.1 0 L 93.46 -12.6 L 91.57 -12.6 Z M 91.13 -4.5 L 92.52 -11.11 L 93.91 -4.5 Z M 109.19 -12.6 L 109.19 0 L 113.69 0 L 113.69 -1.08 L 110.45 -1.08 L 110.45 -12.6 Z" stroke-linecap="round" />
</g>
</g>
</g>
</svg>